:SAMPLES-PER-SECOND 30
:FRAME-RANGE 1-2045
:FULLY-SPECIFIED
:DEGREES
320
root  24.2852 32.7835 40.0903 7.66886 -0.272114 -2.1203
RightUpLeg  -41.8405 -17.0083 -20.5757
RightLeg  40.2876 -6.93705 -6.54117
RightFoot  0.921659 -2.59486 23.8894
RightToes  5.82063e-011 0 -3.6325e-017
Spine  27.2 -1.01519 -0.566148
Spine1  2.67135 -1.46191 0.00133874
HEad  -10.3078 -14.5436 3.307
LeftShoulder1  3.25828 -8.58862 -20.535
LeftArm  14.036 -64.8986 -81.9543
LeftForeArm  12.5155 0.260079 -16.8272
LeftHand  0.063453 1.02734 -1.86294
RightShoulder  10.2655 32.8363 21.5021
RightArm  -43.2811 28.6692 3.72298
RightForeArm  7.071 -6.685 4.89898
RightHand  0.450329 4.22133 5.15418
LeftUpLeg  -44.4327 29.3316 14.9696
LeftLeg  60.0225 -0.796864 -0.925619
LeftFoot  -13.5584 -0.236487 -16.3031
LeftToes  -3.90176e-010 -2.48536e-010 1.05482e-011
321
root  23.6401 32.4878 40.3244 8.06745 -2.76269 -2.13827
RightUpLeg  -45.3269 -18.7974 -18.0717
RightLeg  43.3302 -4.27604 -4.61036
RightFoot  0.117856 -2.38735 23.4927
RightToes  5.82063e-011 0 -3.6325e-017
Spine  26.9742 -1.447 0.141399
Spine1  2.69893 -1.65977 -0.0584732
HEad  -11.7201 -13.7126 2.99588
LeftShoulder1  3.35094 -8.96753 -20.4535
LeftArm  13.754 -65.0063 -85.4325
LeftForeArm  11.8589 2.03551 -16.74
LeftHand  0.0762372 1.43447 -2.50766
RightShoulder  9.08043 33.6024 17.4568
RightArm  -44.5544 30.5933 2.70406
RightForeArm  4.41533 -6.65678 4.80666
RightHand  0.602738 3.91578 7.23915
LeftUpLeg  -43.3865 30.5591 17.0895
LeftLeg  60.696 -0.484188 -0.352259
LeftFoot  -13.8344 -0.315517 -18.1534
LeftToes  -3.90176e-010 -2.48536e-010 1.05482e-011
322
root  22.8571 32.2366 40.5921 7.82259 -4.60776 -1.8678
RightUpLeg  -47.5271 -19.5734 -16.4659
RightLeg  46.6238 -1.75902 -2.32187
RightFoot  -1.67703 -2.03368 23.6051
RightToes  5.82063e-011 0 -3.6325e-017
Spine  27.1727 -2.06818 0.283092
Spine1  2.72569 -2.23881 0.153439
HEad  -12.9943 -12.924 2.86874
LeftShoulder1  3.33541 -9.31732 -19.5366
LeftArm  14.0723 -65.7647 -87.5108
LeftForeArm  12.5239 3.67682 -16.5936
LeftHand  0.121715 1.15024 -3.5548
RightShoulder  8.07133 34.8 13.7515
RightArm  -45.6108 32.5251 2.54336
RightForeArm  1.58083 -6.61604 4.72033
RightHand  0.709495 3.55299 8.93773
LeftUpLeg  -41.1995 31.1555 19.5137
LeftLeg  60.6226 -0.394837 -0.178846
LeftFoot  -13.7928 -0.350125 -20.018
LeftToes  -3.90176e-010 -2.48536e-010 1.05482e-011
323
root  22.0178 32.0314 40.893 7.34268 -6.08543 -1.07521
RightUpLeg  -49.4571 -20.1052 -15.4887
RightLeg  50.5204 -0.391795 -0.875317
RightFoot  -3.98511 -1.46191 22.0586
RightToes  5.82063e-011 0 -3.6325e-017
Spine  27.6039 -2.78165 0.47277
Spine1  2.31619 -2.84173 0.010006
HEad  -13.8189 -12.6846 2.34764
LeftShoulder1  3.32174 -9.45108 -19.1338
LeftArm  15.2493 -66.3604 -88.4441
LeftForeArm  12.2267 3.17699 -16.6196
LeftHand  0.0975361 1.24142 -2.96275
RightShoulder  7.35074 35.6818 11.208
RightArm  -45.8004 34.3491 2.47693
RightForeArm  -1.74995 -6.63613 5.07238
RightHand  0.879094 3.40854 11.3138
LeftUpLeg  -38.6281 31.1303 21.4385
LeftLeg  60.0214 -0.127379 0.331681
LeftFoot  -13.3296 -0.303181 -21.801
LeftToes  -3.90176e-010 -2.48536e-010 1.05482e-011
324
root  21.1551 31.8952 41.2447 7.11502 -6.93682 -0.408504
RightUpLeg  -50.8357 -20.5456 -14.5627
RightLeg  53.9927 0.539242 0.39322
RightFoot  -6.7983 -0.887626 20.9801
RightToes  5.82063e-011 0 -3.6325e-017
Spine  27.2146 -3.38947 1.4366
Spine1  2.59225 -3.13923 -0.14347
HEad  -14.5994 -13.0937 1.34169
LeftShoulder1  3.30423 -9.5734 -18.7308
LeftArm  14.2843 -67.5803 -89.9408
LeftForeArm  13.1408 3.32622 -16.1072
LeftHand  0.0830336 1.3531 -2.64126
RightShoulder  6.5276 36.2805 8.61693
RightArm  -46.3848 35.9777 1.88301
RightForeArm  -2.67727 -6.63439 5.13607
RightHand  0.922388 3.22844 12.1404
LeftUpLeg  -36.2526 30.698 23.1817
LeftLeg  58.8137 0.0739494 0.682465
LeftFoot  -12.7706 -0.219004 -23.3449
LeftToes  -3.90176e-010 -2.48536e-010 1.05482e-011
325
root  20.2672 31.887 41.5824 6.97643 -7.75707 0.393315
RightUpLeg  -51.7453 -20.8428 -13.6962
RightLeg  56.5003 1.23288 1.56866
RightFoot  -8.9995 -0.470055 19.7953
RightToes  5.82063e-011 0 -3.6325e-017
Spine  26.9447 -3.66706 2.54842
Spine1  2.70399 -3.07313 -0.330837
HEad  -16.015 -13.497 0.579089
LeftShoulder1  3.17513 -9.57923 -17.6516
LeftArm  12.0271 -68.8375 -90.5773
LeftForeArm  12.591 3.01903 -15.3316
LeftHand  0.0574166 1.81995 -2.2328
RightShoulder  5.76683 36.8035 6.29213
RightArm  -47.3227 36.7737 0.68321
RightForeArm  -4.71447 -6.59113 5.05513
RightHand  0.906968 2.70208 12.7533
LeftUpLeg  -33.6342 30.1331 24.5294
LeftLeg  56.6863 0.433396 1.22935
LeftFoot  -11.7303 -0.014848 -24.5516
LeftToes  -3.90176e-010 -2.48536e-010 1.05482e-011
326
root  19.353 32.0165 41.903 6.96885 -8.87715 1.26866
RightUpLeg  -52.3502 -20.6974 -12.7464
RightLeg  58.0846 1.74049 2.55344
RightFoot  -10.8689 -0.149862 18.1705
RightToes  5.82063e-011 0 -3.6325e-017
Spine  26.7998 -3.68174 3.58646
Spine1  2.63909 -2.71038 -0.721009
HEad  -17.4599 -13.2595 0.0189143
LeftShoulder1  3.05444 -9.40962 -16.9837
LeftArm  9.40961 -70.0527 -89.0791
LeftForeArm  13.0151 2.3278 -14.6073
LeftHand  0.132603 1.18888 -3.89932
RightShoulder  5.16842 36.6808 4.69798
RightArm  -48.3971 37.6752 -0.561968
RightForeArm  -6.79992 -6.54157 4.96096
RightHand  0.860521 2.25629 12.838
LeftUpLeg  -30.652 29.2752 25.5571
LeftLeg  53.6037 1.36168 2.46469
LeftFoot  -9.92369 0.380804 -25.6236
LeftToes  -3.90176e-010 -2.48536e-010 1.05482e-011
327
root  18.4526 32.3084 42.2468 6.93389 -9.49058 2.19226
RightUpLeg  -52.0492 -20.8904 -11.9844
RightLeg  58.6809 2.07218 3.20485
RightFoot  -12.4787 0.0850894 17.0475
RightToes  5.82063e-011 0 -3.6325e-017
Spine  26.6333 -3.77279 4.44184
Spine1  2.84978 -2.60008 -0.684106
HEad  -19.086 -12.6659 -0.650597
LeftShoulder1  2.92491 -9.09727 -16.5039
LeftArm  6.44142 -70.7415 -86.4348
LeftForeArm  13.4677 0.86841 -14.0404
LeftHand  0.134454 1.04058 -3.79118
RightShoulder  4.69454 36.6276 3.40959
RightArm  -49.4204 38.2993 -2.02806
RightForeArm  -6.38194 -6.52206 4.8033
RightHand  0.871764 2.3409 12.8571
LeftUpLeg  -27.962 26.8441 26.0795
LeftLeg  50.0696 3.29372 4.6533
LeftFoot  -6.54219 1.15214 -26.1475
LeftToes  -3.90176e-010 -2.48536e-010 1.05482e-011
328
root  17.5881 32.6881 42.5651 7.02555 -9.37772 2.95933
RightUpLeg  -51.2982 -21.2361 -11.2105
RightLeg  58.591 1.96699 3.00485
RightFoot  -13.2433 0.169199 15.5506
RightToes  5.82063e-011 0 -3.6325e-017
Spine  26.5067 -3.70948 5.3001
Spine1  2.79116 -2.50543 -0.117135
HEad  -20.1766 -12.6844 -0.533205
LeftShoulder1  2.83348 -8.85549 -16.1931
LeftArm  6.13808 -70.5571 -85.7309
LeftForeArm  12.5518 -1.21484 -14.0136
LeftHand  0.146733 0.830373 -3.899
RightShoulder  4.42714 36.1323 2.83249
RightArm  -49.907 38.1355 -2.86358
RightForeArm  -6.55862 -6.50602 4.72569
RightHand  0.89937 2.50539 12.9767
LeftUpLeg  -27.052 22.7085 26.2778
LeftLeg  47.8224 6.12917 7.61486
LeftFoot  0.0923777 2.4854 -24.4952
LeftToes  -3.90176e-010 -2.48536e-010 1.05482e-011
329
root  16.7114 33.1663 42.857 7.40052 -9.11211 3.62997
RightUpLeg  -50.4605 -21.1571 -10.3231
RightLeg  57.8459 1.75763 2.55285
RightFoot  -13.5873 0.176536 13.6724
RightToes  5.82063e-011 0 -3.6325e-017
Spine  26.1044 -3.37732 5.9256
Spine1  2.7463 -2.23644 0.383619
HEad  -21.125 -13.2151 0.142492
LeftShoulder1  2.73153 -8.69438 -15.6117
LeftArm  11.4358 -69.7387 -87.3108
LeftForeArm  10.8939 -3.93412 -14.5449
LeftHand  0.166801 0.53903 -4.1064
RightShoulder  4.4344 35.346 3.11938
RightArm  -50.1057 37.8035 -3.58407
RightForeArm  -6.98248 -6.50378 4.75506
RightHand  0.888235 2.40013 12.9969
LeftUpLeg  -27.5567 18.8326 25.9068
LeftLeg  46.1881 9.50036 10.8369
LeftFoot  9.81156 3.13318 -16.9974
LeftToes  -3.90176e-010 -2.48536e-010 1.05482e-011
330
root  15.8849 33.7471 43.1442 7.93026 -8.60641 4.12773
RightUpLeg  -49.246 -20.8234 -9.40151
RightLeg  56.2714 1.24111 1.55991
RightFoot  -13.5622 0.138763 11.8858
RightToes  5.82063e-011 0 -3.6325e-017
Spine  25.6425 -3.07602 6.35421
Spine1  2.5643 -2.04963 0.668753
HEad  -21.9743 -13.6234 0.381519
LeftShoulder1  2.58297 -8.53871 -14.5782
LeftArm  23.6934 -68.1209 -90.3743
LeftForeArm  6.05936 -7.69009 -14.8555
LeftHand  0.130297 0.631876 -3.30067
RightShoulder  4.52524 34.6969 3.61176
RightArm  -50.1713 37.3134 -3.7337
RightForeArm  -6.64739 -6.01796 4.77208
RightHand  0.894042 2.46954 12.9611
LeftUpLeg  -28.9836 16.9324 24.3327
LeftLeg  44.7315 6.7993 7.55283
LeftFoot  12.2539 2.29824 -11.3356
LeftToes  -3.90176e-010 -2.48536e-010 1.05482e-011
331
root  15.1001 34.3829 43.4304 8.37091 -7.84526 4.5618
RightUpLeg  -47.5817 -20.3492 -8.62268
RightLeg  54.1531 0.00971185 -0.402244
RightFoot  -13.2247 0.0941941 11.1764
RightToes  5.82063e-011 0 -3.6325e-017
Spine  25.4985 -2.76445 6.22
Spine1  1.95961 -1.96371 0.914029
HEad  -22.7539 -13.7889 0.410059
LeftShoulder1  2.42722 -8.3767 -13.4589
LeftArm  45.74 -65.6318 -93.4919
LeftForeArm  -3.51051 -13.6802 -13.2643
LeftHand  0.155594 -0.236431 -3.20932
RightShoulder  4.76055 34.1059 4.52562
RightArm  -49.7373 36.1756 -3.22223
RightForeArm  -7.19623 -3.99503 5.1609
RightHand  0.931364 2.80027 12.9341
LeftUpLeg  -31.7521 17.648 20.7724
LeftLeg  45.6587 1.56959 2.12499
LeftFoot  7.90821 2.10751 -12.6718
LeftToes  -3.90176e-010 -2.48536e-010 1.05482e-011
332
root  14.3725 35.0757 43.7073 8.92973 -6.88605 4.96519
RightUpLeg  -45.5872 -19.719 -8.05328
RightLeg  51.3383 -1.11441 -1.87835
RightFoot  -12.7539 0.0429046 10.4966
RightToes  5.82063e-011 0 -3.6325e-017
Spine  25.0623 -2.3703 5.62331
Spine1  1.63721 -1.96386 1.34691
HEad  -24.2124 -13.8774 0.37626
LeftShoulder1  2.36985 -8.1962 -13.266
LeftArm  65.1329 -62.4702 -94.5656
LeftForeArm  -9.92981 -19.5332 -8.83025
LeftHand  0.117243 -1.45694 -1.86271
RightShoulder  5.20018 33.116 6.25811
RightArm  -49.8387 35.235 -3.01983
RightForeArm  -8.8822 -1.09303 5.63159
RightHand  0.966274 2.94706 13.1749
LeftUpLeg  -35.1866 19.9306 15.3787
LeftLeg  46.4765 -0.0451161 0.360693
LeftFoot  3.55554 1.93365 -14.8871
LeftToes  -3.90176e-010 -2.48536e-010 1.05482e-011
333
root  13.6657 35.8302 43.978 9.61839 -5.89339 4.96381
RightUpLeg  -43.2989 -19.2105 -7.00746
RightLeg  47.646 -2.15067 -2.87111
RightFoot  -11.8252 -0.0393111 9.731
RightToes  5.82063e-011 0 -3.6325e-017
Spine  24.224 -2.02149 4.93298
Spine1  1.60384 -1.93297 1.57087
HEad  -25.2929 -13.7439 0.144767
LeftShoulder1  2.38504 -8.0615 -13.6707
LeftArm  71.2258 -58.9465 -92.7987
LeftForeArm  -5.84121 -22.8107 -5.59402
LeftHand  -0.0489108 -1.56763 0.962761
RightShoulder  5.77173 32.2271 8.43858
RightArm  -49.8829 33.9292 -3.053
RightForeArm  -10.3199 2.36971 6.25804
RightHand  1.00996 2.97576 13.7252
LeftUpLeg  -38.5248 23.5119 8.75166
LeftLeg  45.1343 0.308241 0.736916
LeftFoot  -0.275055 1.44418 -14.8242
LeftToes  -3.90176e-010 -2.48536e-010 1.05482e-011
